<?xml version="1.0" standalone="no"?>
<!DOCTYPE svg PUBLIC "-//W3C//DTD SVG 20010904//EN"
 "http://www.w3.org/TR/2001/REC-SVG-20010904/DTD/svg10.dtd">
<svg version="1.0" xmlns="http://www.w3.org/2000/svg"
 width="223.000000pt" height="178.000000pt" viewBox="0 0 223.000000 178.000000"
 preserveAspectRatio="xMidYMid meet">

<g transform="translate(0.000000,178.000000) scale(0.100000,-0.100000)"
fill="#000000" stroke="none">
<path d="M980 1547 c-13 -7 -52 -46 -86 -87 -74 -88 -82 -124 -37 -160 17 -13
38 -20 53 -18 l26 4 -18 -35 c-12 -24 -18 -58 -18 -107 0 -39 -7 -93 -15 -120
-22 -73 -19 -151 8 -199 79 -140 327 -137 421 5 58 88 72 246 31 362 -19 55
-79 126 -128 153 l-35 18 32 22 c46 31 60 66 43 108 -9 21 -26 38 -43 44 -44
17 -206 24 -234 10z m213 -28 c30 -16 37 -28 37 -67 0 -27 -5 -35 -36 -49 -31
-15 -36 -15 -44 -3 -6 8 -10 23 -10 34 0 14 5 17 21 13 16 -4 18 -3 8 9 -17
20 -45 17 -92 -10 -23 -14 -64 -30 -92 -36 -55 -12 -75 -25 -75 -47 0 -12 3
-13 13 -4 10 8 17 7 25 -1 20 -20 13 -36 -20 -47 -25 -9 -36 -8 -55 4 -34 22
-29 48 21 107 98 116 84 108 186 108 50 0 101 -5 113 -11z m-69 -111 c3 -17 5
-32 4 -33 -2 -1 -32 -9 -68 -18 -54 -13 -67 -13 -79 -2 -17 17 -6 35 22 35 12
0 40 11 62 24 52 31 51 31 59 -6z m81 -83 c73 -30 135 -159 135 -280 0 -133
-48 -228 -136 -271 -74 -36 -171 -32 -233 9 -73 49 -98 137 -65 228 9 24 17
80 19 125 2 48 9 93 18 111 21 39 71 81 105 89 15 3 32 7 37 10 16 6 85 -6
120 -21z"/>
<path d="M1135 1309 c-4 -6 -5 -12 -4 -13 6 -5 89 -14 89 -10 0 5 -58 34 -69
34 -5 0 -13 -5 -16 -11z"/>
<path d="M993 1278 c-26 -34 -25 -40 5 -24 17 9 34 20 37 26 9 15 -31 12 -42
-2z"/>
<path d="M1128 1233 c-27 -32 -34 -50 -11 -30 23 20 56 22 71 5 6 -7 15 -29
20 -48 6 -19 11 -29 11 -21 1 8 9 20 19 27 12 10 13 13 3 14 -11 0 -11 3 -1
15 10 12 10 15 0 15 -7 0 -10 6 -7 14 4 9 0 12 -13 9 -10 -3 -21 0 -24 6 -11
17 -51 13 -68 -6z"/>
<path d="M992 1222 c4 -12 3 -20 -2 -17 -17 11 -21 -30 -4 -42 16 -11 19 -9
31 18 16 38 47 36 51 -3 4 -32 -24 -60 -78 -78 -63 -21 -70 -40 -44 -127 3
-13 2 -23 -4 -23 -5 0 -9 6 -8 13 0 6 -3 13 -9 15 -17 4 -11 -50 7 -61 24 -16
48 8 48 49 0 18 5 36 10 39 6 4 10 -20 10 -64 0 -61 3 -72 22 -85 26 -19 106
-21 141 -5 36 16 48 52 43 123 -4 44 -3 50 2 21 10 -54 19 -65 51 -65 33 0 51
16 51 46 0 25 -24 49 -40 39 -6 -4 -10 7 -10 29 0 52 -27 63 -82 35 -35 -18
-47 -20 -71 -11 -23 9 -28 8 -24 -2 10 -26 -8 -36 -53 -28 -56 9 -59 30 -8 54
44 21 68 53 68 89 0 32 -21 52 -52 48 -13 -2 -29 1 -37 5 -11 7 -13 4 -9 -12z
m172 -239 c-26 -19 -124 -18 -124 2 0 11 12 15 43 16 23 1 53 4 67 8 31 9 40
-7 14 -26z m116 2 c8 5 11 3 8 -6 -7 -21 -32 -17 -36 6 -2 15 -1 17 6 6 6 -8
15 -10 22 -6z"/>
<path d="M1023 1174 c-8 -21 13 -42 28 -27 13 13 5 43 -11 43 -6 0 -13 -7 -17
-16z"/>
<path d="M1127 1175 c-9 -22 3 -46 22 -43 10 2 16 13 16 28 0 28 -29 40 -38
15z"/>
<path d="M965 888 c-3 -9 -1 -26 5 -38 20 -37 119 -66 135 -40 4 6 -6 10 -24
10 -45 0 -76 18 -94 53 -12 26 -16 29 -22 15z"/>
</g>
</svg>
