<?xml version="1.0" standalone="no"?>
<!DOCTYPE svg PUBLIC "-//W3C//DTD SVG 20010904//EN"
 "http://www.w3.org/TR/2001/REC-SVG-20010904/DTD/svg10.dtd">
<svg version="1.0" xmlns="http://www.w3.org/2000/svg"
 width="223.000000pt" height="178.000000pt" viewBox="0 0 223.000000 178.000000"
 preserveAspectRatio="xMidYMid meet">

<g transform="translate(0.000000,178.000000) scale(0.100000,-0.100000)"
fill="#000000" stroke="none">
<path d="M980 1547 c-13 -7 -52 -46 -86 -87 -74 -88 -82 -124 -37 -160 17 -13
38 -20 53 -18 l26 4 -18 -35 c-12 -24 -18 -58 -18 -107 0 -39 -7 -93 -15 -120
-22 -73 -19 -151 8 -199 79 -140 327 -137 421 5 58 88 72 246 31 362 -19 55
-79 126 -128 153 l-35 18 32 22 c46 31 60 66 43 108 -9 21 -26 38 -43 44 -44
17 -206 24 -234 10z m213 -28 c30 -16 37 -28 37 -67 0 -27 -5 -35 -36 -49 -31
-15 -36 -15 -44 -3 -6 8 -10 23 -10 34 0 14 5 17 21 13 16 -4 18 -3 8 9 -17
20 -45 17 -92 -10 -23 -14 -64 -30 -92 -36 -55 -12 -75 -25 -75 -47 0 -12 3
-13 13 -4 10 8 17 7 25 -1 20 -20 13 -36 -20 -47 -25 -9 -36 -8 -55 4 -34 22
-29 48 21 107 98 116 84 108 186 108 50 0 101 -5 113 -11z m-69 -111 c3 -17 5
-32 4 -33 -2 -1 -32 -9 -68 -18 -54 -13 -67 -13 -79 -2 -17 17 -6 35 22 35 12
0 40 11 62 24 52 31 51 31 59 -6z m81 -83 c73 -30 135 -159 135 -280 0 -133
-48 -228 -136 -271 -74 -36 -171 -32 -233 9 -73 49 -98 137 -65 228 9 24 17
80 19 125 2 48 9 93 18 111 21 39 71 81 105 89 15 3 32 7 37 10 16 6 85 -6
120 -21z"/>
<path d="M1135 1309 c-4 -6 -5 -12 -4 -13 6 -5 89 -14 89 -10 0 5 -58 34 -69
34 -5 0 -13 -5 -16 -11z"/>
<path d="M993 1278 c-26 -34 -25 -40 5 -24 17 9 34 20 37 26 9 15 -31 12 -42
-2z"/>
<path d="M1128 1233 c-27 -32 -34 -50 -11 -30 23 20 56 22 71 5 6 -7 15 -29
20 -48 6 -19 11 -29 11 -21 1 8 9 20 19 27 12 10 13 13 3 14 -11 0 -11 3 -1
15 10 12 10 15 0 15 -7 0 -10 6 -7 14 4 9 0 12 -13 9 -10 -3 -21 0 -24 6 -11
17 -51 13 -68 -6z"/>
<path d="M992 1222 c4 -12 3 -20 -2 -17 -17 11 -21 -30 -4 -42 16 -11 19 -9
31 18 16 38 47 36 51 -3 4 -32 -24 -60 -78 -78 -63 -21 -70 -40 -44 -127 3
-13 2 -23 -4 -23 -5 0 -9 6 -8 13 0 6 -3 13 -9 15 -17 4 -11 -50 7 -61 24 -16
48 8 48 49 0 18 5 36 10 39 6 4 10 -20 10 -64 0 -61 3 -72 22 -85 26 -19 106
-21 141 -5 36 16 48 52 43 123 -4 44 -3 50 2 21 10 -54 19 -65 51 -65 33 0 51
16 51 46 0 25 -24 49 -40 39 -6 -4 -10 7 -10 29 0 52 -27 63 -82 35 -35 -18
-47 -20 -71 -11 -23 9 -28 8 -24 -2 10 -26 -8 -36 -53 -28 -56 9 -59 30 -8 54
44 21 68 53 68 89 0 32 -21 52 -52 48 -13 -2 -29 1 -37 5 -11 7 -13 4 -9 -12z
m172 -239 c-26 -19 -124 -18 -124 2 0 11 12 15 43 16 23 1 53 4 67 8 31 9 40
-7 14 -26z m116 2 c8 5 11 3 8 -6 -7 -21 -32 -17 -36 6 -2 15 -1 17 6 6 6 -8
15 -10 22 -6z"/>
<path d="M1023 1174 c-8 -21 13 -42 28 -27 13 13 5 43 -11 43 -6 0 -13 -7 -17
-16z"/>
<path d="M1127 1175 c-9 -22 3 -46 22 -43 10 2 16 13 16 28 0 28 -29 40 -38
15z"/>
<path d="M965 888 c-3 -9 -1 -26 5 -38 20 -37 119 -66 135 -40 4 6 -6 10 -24
10 -45 0 -76 18 -94 53 -12 26 -16 29 -22 15z"/>
<path d="M513 634 c-8 -21 13 -42 28 -27 13 13 5 43 -11 43 -6 0 -13 -7 -17
-16z"/>
<path d="M703 634 c-7 -20 17 -37 34 -23 15 13 6 39 -13 39 -8 0 -17 -7 -21
-16z"/>
<path d="M264 620 c-28 -11 -54 -48 -54 -77 0 -35 40 -74 78 -75 35 -1 58 14
48 30 -3 5 -16 7 -29 5 -30 -6 -49 18 -45 54 3 24 8 28 35 29 42 0 53 12 29
30 -22 16 -32 16 -62 4z"/>
<path d="M1105 620 c-32 -12 -47 -36 -47 -75 0 -58 48 -93 100 -74 32 12 29
37 -3 31 -31 -5 -55 13 -55 43 0 29 24 49 50 42 27 -7 37 13 15 30 -21 15 -31
15 -60 3z"/>
<path d="M1907 613 c-10 -10 -8 -88 3 -117 7 -20 16 -26 40 -26 20 0 30 5 30
15 0 8 -7 15 -15 15 -9 0 -15 9 -15 25 0 16 6 25 15 25 8 0 15 7 15 15 0 8 -6
15 -14 15 -7 0 -16 9 -19 20 -5 19 -27 27 -40 13z"/>
<path d="M360 541 c0 -59 14 -73 72 -69 l43 3 3 58 c3 52 1 57 -18 57 -17 0
-20 -6 -20 -46 0 -38 -3 -45 -17 -42 -13 2 -19 15 -21 46 -3 34 -7 42 -23 42
-16 0 -19 -7 -19 -49z"/>
<path d="M510 530 c0 -53 2 -60 20 -60 18 0 20 7 20 60 0 53 -2 60 -20 60 -18
0 -20 -7 -20 -60z"/>
<path d="M581 572 c-12 -23 -1 -42 36 -58 l28 -12 -32 -1 c-50 -1 -45 -31 5
-31 67 0 82 38 30 70 l-33 20 28 0 c17 0 27 5 27 15 0 23 -76 20 -89 -3z"/>
<path d="M702 533 c2 -46 7 -59 21 -61 15 -3 17 5 17 57 0 55 -2 61 -20 61
-19 0 -21 -5 -18 -57z"/>
<path d="M781 576 c-18 -22 -10 -100 11 -104 13 -3 17 6 20 40 2 31 8 44 21
46 14 3 17 -4 17 -42 0 -39 3 -46 20 -46 17 0 20 7 20 48 0 26 -5 53 -12 60
-17 17 -83 15 -97 -2z"/>
<path d="M932 578 c-7 -7 -12 -29 -12 -50 0 -43 23 -61 72 -56 46 4 49 28 4
28 -20 0 -36 5 -36 10 0 6 11 10 24 10 54 0 71 23 40 54 -18 19 -75 21 -92 4z
m53 -28 c-3 -5 -10 -10 -16 -10 -5 0 -9 5 -9 10 0 6 7 10 16 10 8 0 12 -4 9
-10z"/>
<path d="M1210 575 c-7 -9 -13 -29 -13 -45 0 -44 20 -61 67 -58 33 2 43 8 54
31 11 22 11 32 0 55 -11 22 -21 28 -54 30 -28 2 -45 -2 -54 -13z m70 -46 c0
-24 -4 -30 -17 -27 -11 2 -19 14 -21 31 -3 22 1 27 17 27 17 0 21 -6 21 -31z"/>
<path d="M1357 583 c-4 -3 -7 -30 -7 -60 0 -46 3 -53 20 -53 17 0 20 7 20 46
0 38 3 45 18 42 12 -2 18 -15 20 -46 3 -34 7 -42 23 -42 16 0 19 7 19 41 0 62
-13 79 -64 79 -23 0 -46 -3 -49 -7z"/>
<path d="M1501 571 c-22 -41 -10 -101 20 -101 16 0 19 8 19 45 0 33 4 45 14
45 10 0 16 -14 18 -42 2 -32 8 -44 21 -46 16 -3 18 3 15 55 l-3 58 -47 3 c-38
2 -49 -1 -57 -17z"/>
<path d="M1652 578 c-17 -17 -15 -74 4 -92 21 -21 94 -22 94 -1 0 11 -11 15
-36 15 -21 0 -33 4 -29 10 3 6 20 10 36 10 34 0 46 19 29 49 -8 16 -20 21 -48
21 -21 0 -43 -5 -50 -12z m58 -28 c-19 -13 -30 -13 -30 0 0 6 10 10 23 10 18
0 19 -2 7 -10z"/>
<path d="M1792 578 c-6 -6 -12 -29 -12 -50 0 -42 19 -58 69 -58 40 0 42 27 4
32 -22 2 -28 8 -28 28 0 20 6 26 28 28 16 2 27 8 24 15 -5 17 -69 21 -85 5z"/>
<path d="M483 413 c-27 -10 -14 -51 23 -72 43 -25 43 -54 1 -59 -22 -3 -30 1
-34 17 -7 28 -25 27 -21 -1 7 -53 108 -46 108 7 0 19 -10 31 -35 46 -44 26
-46 49 -4 49 26 0 31 -3 26 -20 -6 -23 11 -27 19 -5 13 33 -39 56 -83 38z"/>
<path d="M1521 390 c-7 -22 -18 -32 -40 -36 -21 -5 -33 -15 -40 -35 -6 -17
-17 -29 -27 -29 -16 0 -16 1 -1 18 23 25 21 42 -3 42 -14 0 -25 -11 -34 -30
-14 -34 -29 -29 -20 6 6 25 -9 33 -22 13 -4 -8 -9 -7 -15 2 -8 14 -8 14 -24
-37 -8 -25 -23 -7 -17 21 5 27 -6 33 -26 13 -7 -7 -12 -8 -12 -2 0 5 -20 10
-44 12 -41 2 -45 1 -54 -28 -13 -34 -42 -41 -42 -9 0 15 5 19 15 15 9 -3 15 0
15 10 0 10 -8 14 -22 12 -18 -2 -24 -11 -26 -34 -3 -33 22 -54 41 -35 7 7 17
7 29 0 24 -13 48 4 48 33 0 10 5 16 10 13 6 -3 10 -18 10 -33 l1 -27 18 22
c17 21 19 21 24 4 6 -23 46 -21 60 4 10 19 10 19 17 0 6 -16 17 -19 71 -20 35
-1 72 3 82 8 12 5 23 4 32 -3 10 -8 19 -8 33 -1 11 6 22 7 26 3 10 -10 168
-10 189 0 22 11 23 30 1 21 -14 -5 -16 -1 -12 20 7 35 -7 34 -42 -3 -15 -16
-35 -30 -44 -30 -13 0 -12 4 4 20 23 23 19 40 -10 40 -11 0 -22 -10 -26 -22
-7 -23 -21 -38 -38 -38 -5 0 -1 9 9 20 14 15 16 23 7 32 -14 14 -41 4 -49 -19
-14 -39 -46 -44 -41 -6 2 19 10 29 28 34 14 4 18 7 9 8 -11 1 -14 9 -11 31 6
41 -22 41 -37 0z m21 -12 c-7 -7 -12 -8 -12 -2 0 14 12 26 19 19 2 -3 -1 -11
-7 -17z m-32 -46 c0 -21 -18 -42 -37 -42 -15 0 -18 36 -4 44 5 4 12 0 14 -6 3
-8 6 -6 6 5 1 23 21 22 21 -1z m-330 -17 c0 -14 -4 -25 -10 -25 -11 0 -14 33
-3 43 11 11 13 8 13 -18z m422 3 c-7 -7 -12 -8 -12 -2 0 14 12 26 19 19 2 -3
-1 -11 -7 -17z m70 0 c-7 -7 -12 -8 -12 -2 0 14 12 26 19 19 2 -3 -1 -11 -7
-17z m68 -18 c0 -5 -5 -10 -11 -10 -5 0 -7 5 -4 10 3 6 8 10 11 10 2 0 4 -4 4
-10z"/>
<path d="M1612 395 c-13 -29 -5 -33 14 -7 15 20 18 32 6 32 -5 0 -14 -11 -20
-25z"/>
<path d="M590 336 c-6 -8 -10 -25 -8 -38 3 -20 9 -23 51 -23 27 0 51 3 53 7 7
11 51 10 58 0 3 -5 40 -8 82 -7 70 1 78 4 86 24 l8 22 27 -25 c30 -28 44 -31
74 -16 23 13 26 32 3 23 -14 -5 -16 -1 -12 20 6 29 -15 39 -26 12 -7 -20 -46
-20 -46 0 0 25 -44 12 -50 -15 -3 -13 -12 -26 -19 -28 -11 -4 -13 3 -8 27 8
40 -8 41 -22 1 -5 -16 -13 -30 -16 -30 -4 0 -4 14 0 30 4 17 3 30 -2 30 -5 0
-14 -13 -20 -30 -7 -18 -19 -30 -29 -30 -16 0 -16 1 -1 18 23 25 21 42 -3 42
-13 0 -24 -10 -30 -26 -11 -29 -34 -23 -25 7 9 27 -10 24 -23 -3 l-11 -23 0
23 c-1 30 -21 28 -21 -2 0 -14 -4 -28 -10 -31 -6 -4 -10 7 -10 24 0 24 -4 31
-19 31 -10 0 -24 -7 -31 -14z m21 -39 c-8 -8 -11 -5 -11 9 0 27 14 41 18 19 2
-9 -1 -22 -7 -28z m379 3 c0 -5 -5 -10 -11 -10 -5 0 -7 5 -4 10 3 6 8 10 11
10 2 0 4 -4 4 -10z"/>
</g>
</svg>
